# xmcd
#
# Track frame offsets:
#	150
#	17316
#	32630
#	48007
#	64593
#	80414
#	95206
#	110016
#	124515
#	138422
#	154797
#	169585
#	183747
#	198080
#	212369
#
# Disc length: 3038 seconds
#
# Revision: 1
# Processed by: cddbd v1.5.2PL0 Copyright (c) Steve Scherf et al.
# Submitted via: audiograbber 1.83.01
#
DISCID=bc0bdc0f
DTITLE=Forró Anjo Azul - Volume 3
DYEAR=2009
DGENRE=Forró
TTITLE0=Não Sou de Ninguém
TTITLE1=Não Me Deixe Amor
TTITLE2=Matemática da Paixão
TTITLE3=Como a Lua e o Sol
TTITLE4=Deu Saudade
TTITLE5=Dois Apaixonados
TTITLE6=Cansei
TTITLE7=Você Não Presta
TTITLE8=Infidelidade
TTITLE9=Maldita Sorte
TTITLE10=Perdida
TTITLE11=Eu Não Estou a Venda
TTITLE12=Duvido
TTITLE13=Amanhecer
TTITLE14=Tudo Para, Com Você
EXTD=
EXTT0=
EXTT1=
EXTT2=
EXTT3=
EXTT4=
EXTT5=
EXTT6=
EXTT7=
EXTT8=
EXTT9=
EXTT10=
EXTT11=
EXTT12=
EXTT13=
EXTT14=
PLAYORDER=
